<?xml version="1.0" encoding="utf-8"?>
<!-- Generator: Adobe Illustrator 25.0.0, SVG Export Plug-In . SVG Version: 6.00 Build 0)  -->
<svg version="1.1" id="Layer_1" xmlns="http://www.w3.org/2000/svg" xmlns:xlink="http://www.w3.org/1999/xlink" x="0px" y="0px"
	 viewBox="0 0 600 600" style="enable-background:new 0 0 600 600;" xml:space="preserve">
<style type="text/css">
	.st0{fill:#2D4F6C;}
	.st1{fill:none;}
	.st2{fill:#9CACBA;}
	.st3{fill:#FFFFFF;}
</style>
<g>
	<circle class="st0" cx="300" cy="300" r="217.54"/>
	<g>
		<g>
			<path class="st1" d="M219.55,206.34c-1.11,0-2.2,0.32-3.14,0.94l-1.02,0.66c-2.67,1.74-3.43,5.33-1.69,8l38.17,58.67l7.43-12.02
				l-34.89-53.62C223.34,207.33,221.53,206.34,219.55,206.34z"/>
			<polygon class="st2" points="219.55,206.34 219.55,206.34 219.55,206.34 			"/>
			<path class="st2" d="M213.7,215.95c-1.74-2.67-0.98-6.26,1.69-8l1.02-0.66c0.94-0.61,2.03-0.94,3.14-0.94h0h0l0,0
				c1.97,0,3.79,0.98,4.86,2.63l34.89,53.62l4.13-6.69l-33.06-50.81c-2.47-3.8-6.61-5.87-10.82-5.87c-2.41,0-4.85,0.68-7.02,2.09
				l-1.02,0.66c-5.97,3.88-7.66,11.87-3.78,17.85l40,61.48l4.13-6.69L213.7,215.95z"/>
		</g>
		<g>
			<path class="st2" d="M304.87,202.77l-1.03-0.64c-2.13-1.33-4.49-1.96-6.83-1.96c-4.3,0-8.5,2.15-10.95,6.06l-0.08,0.13l4.2,6.71
				l1.92-3.07c1.06-1.7,2.9-2.72,4.92-2.72c1.08,0,2.13,0.31,3.05,0.88l1.03,0.64c2.7,1.69,3.53,5.27,1.84,7.97
				c-1.87,3.01-3.74,6.02-5.62,9.03c1.44,2.25,2.89,4.5,4.33,6.75c2.44-4,4.88-8.01,7.32-12.01
				C312.74,214.51,310.91,206.55,304.87,202.77z"/>
			<path class="st3" d="M263.96,279.11c-1.06,1.7-2.9,2.72-4.92,2.72c-1.08,0-2.13-0.3-3.06-0.88l-1.03-0.64
				c-1.31-0.82-2.22-2.1-2.57-3.61c-0.35-1.51-0.09-3.06,0.73-4.37l37.06-59.27l-4.2-6.71l-38.9,62.2c-3.78,6.04-1.94,14,4.1,17.77
				l1.03,0.64c2.13,1.33,4.49,1.96,6.83,1.96c4.3,0,8.5-2.15,10.95-6.06c10.51-16.85,21.01-33.7,31.52-50.54
				c-1.4-2.18-2.79-4.35-4.19-6.53C286.2,243.57,275.08,261.34,263.96,279.11z"/>
		</g>
		<path class="st1" d="M297.59,207.28c-1.08,0-2.13,0.3-3.06,0.88l-1.03,0.64c-2.71,1.69-3.53,5.27-1.84,7.97l9.82,15.7l7.53-12.07
			L302.51,210C301.45,208.29,299.61,207.28,297.59,207.28z"/>
		<path class="st1" d="M330.65,279.11c1.07,1.7,2.9,2.72,4.92,2.72c1.08,0,2.13-0.3,3.06-0.88l1.03-0.64
			c1.31-0.82,2.22-2.1,2.57-3.61c0.35-1.51,0.09-3.06-0.73-4.37l-32.47-51.92l-7.53,12.07L330.65,279.11z"/>
		<path class="st2" d="M347.52,268.56l-34.31-54.87l-4.19,6.71l32.47,51.92c0.82,1.31,1.08,2.86,0.73,4.37
			c-0.35,1.51-1.26,2.79-2.57,3.61l-1.03,0.64c-0.92,0.58-1.98,0.88-3.06,0.88c-2.01,0-3.85-1.02-4.92-2.72l-29.16-46.63l-4.19,6.71
			l27.32,43.69c2.45,3.91,6.65,6.06,10.95,6.06c2.34,0,4.7-0.63,6.83-1.96l1.03-0.64C349.47,282.56,351.3,274.6,347.52,268.56z"/>
		<path class="st1" d="M304.12,217.12c1.69-2.7,0.87-6.28-1.84-7.97l-1.03-0.64c-0.92-0.58-1.98-0.88-3.05-0.88
			c-2.02,0-3.85,1.02-4.92,2.72l-6.61,10.57l7.55,12.04L304.12,217.12z"/>
		<g>
			<path class="st1" d="M382.03,217.23c1.74-2.67,0.98-6.26-1.69-8l-1.02-0.66c-0.94-0.61-2.03-0.94-3.14-0.94
				c-1.97,0-3.79,0.98-4.86,2.63l-34.66,53.27l7.4,12.06L382.03,217.23z"/>
			<path class="st2" d="M384.22,203.26l-1.02-0.66c-2.17-1.41-4.61-2.09-7.02-2.09c-4.22,0-8.35,2.07-10.82,5.87l-32.82,50.44
				l4.12,6.71l34.66-53.27c1.07-1.65,2.89-2.63,4.86-2.63c1.11,0,2.2,0.32,3.14,0.94l1.02,0.66c2.67,1.74,3.43,5.33,1.69,8
				l-37.97,58.36l4.12,6.71L388,221.11C391.88,215.13,390.19,207.14,384.22,203.26z"/>
		</g>
		<path class="st2" d="M291.67,216.77c-1.69-2.7-0.87-6.28,1.84-7.97l1.03-0.64c0.92-0.58,1.98-0.88,3.06-0.88
			c2.01,0,3.85,1.02,4.92,2.72l6.51,10.41l4.19-6.71l-4.67-7.47c-2.45-3.91-6.65-6.06-10.95-6.06c-2.34,0-4.7,0.63-6.83,1.96
			l-1.03,0.64c-6.04,3.78-7.87,11.73-4.1,17.77l11.66,18.65l4.19-6.71L291.67,216.77z"/>
		<path class="st1" d="M331.49,279.11c1.07,1.7,2.9,2.72,4.92,2.72c1.08,0,2.13-0.3,3.06-0.88l1.03-0.64
			c1.31-0.82,2.22-2.1,2.57-3.61c0.35-1.51,0.09-3.06-0.73-4.37l-37.04-59.23l-7.55,12.03L331.49,279.11z"/>
		<path class="st3" d="M348.36,268.56c-13.11-20.56-26.23-41.12-39.34-61.69c-1.31,2.03-2.62,4.06-3.93,6.08
			c12.41,19.79,24.82,39.58,37.24,59.38c0.82,1.31,1.08,2.86,0.73,4.37c-0.35,1.51-1.26,2.79-2.57,3.61l-1.03,0.64
			c-0.92,0.58-1.98,0.88-3.06,0.88c-2.01,0-3.85-1.02-4.92-2.72c-11.39-17.77-22.78-35.54-34.17-53.3c-1.4,2.23-2.81,4.45-4.21,6.68
			c10.78,16.8,21.57,33.6,32.35,50.39c2.45,3.91,6.65,6.06,10.95,6.06c2.34,0,4.7-0.63,6.83-1.96l1.03-0.64
			C350.3,282.56,352.14,274.6,348.36,268.56z"/>
		<g>
			<path class="st1" d="M292.87,210.16c-0.12,0.16-0.24,0.32-0.34,0.5L292.87,210.16z"/>
			<path class="st3" d="M309.02,206.87c-0.69-1.18-2.42-3.76-5.7-5.37c-2.5-1.23-4.74-1.32-5.17-1.34
				c-1.65-0.05-3.04,0.26-4.02,0.47c-1.14,0.25-2.08,0.56-2.75,0.81c-0.47,0.26-0.94,0.53-1.41,0.79c-0.84,0.54-4.53,3.02-5.82,7.98
				c-1.39,5.33,1.02,9.54,1.48,10.32c2.15-3.3,4.31-6.59,6.46-9.89c0.11-0.17,0.23-0.33,0.35-0.5l0.16-0.23l-0.16,0.23
				c0.41-0.52,0.91-0.99,1.51-1.36l1.05-0.64c0.95-0.58,2.03-0.88,3.13-0.88c2.06,0,3.95,1.02,5.04,2.72l1.99,3.11
				C306.47,211.03,307.74,208.95,309.02,206.87z"/>
		</g>
	</g>
	<g>
		<path class="st3" d="M167.47,325.54l-8.91,34.9h-4.96l-7.97-28.48l-7.82,28.48h-4.94l-8.82-34.9h4.98l6.46,28.05l7.8-28.05h4.84
			l7.75,28.02l6.6-28.02H167.47z"/>
		<path class="st3" d="M214.29,360.44h-25.04v-34.9h24.22v3.97h-19.72v11.01h18.96v3.97h-18.96v11.97h20.54V360.44z"/>
		<path class="st3" d="M263.45,350.38c0,2.68-0.96,5.04-2.87,7.08c-1.79,1.98-3.75,2.97-5.89,2.97h-17.28v-34.9h15.7
			c1.95,0,3.81,0.72,5.6,2.15c2.17,1.76,3.26,4.02,3.26,6.8c0,3.58-1.5,6.05-4.5,7.42C261.46,343.54,263.45,346.36,263.45,350.38z
			 M257.47,335.35c0-1.92-0.83-3.41-2.49-4.5c-1.37-0.89-3.02-1.34-4.93-1.34h-8.14v11.01h10.05c1.4,0,2.63-0.43,3.69-1.29
			C256.86,338.24,257.47,336.95,257.47,335.35z M259.09,350.38c0-3.92-2.39-5.89-7.18-5.89h-10.01v11.97h11.73
			c1.53,0,2.82-0.59,3.88-1.77C258.57,353.51,259.09,352.08,259.09,350.38z"/>
		<path class="st3" d="M312.04,351.01c0,3.13-1.26,5.66-3.78,7.59c-2.52,1.93-5.87,2.9-10.05,2.9c-4.4,0-7.76-1.05-10.05-3.16
			c-2.3-2.11-3.48-5.09-3.54-8.95h4.12c0.22,2.87,1.16,4.96,2.8,6.27c1.64,1.31,4.19,1.96,7.64,1.96c2.46,0,4.44-0.61,5.96-1.82
			c1.52-1.21,2.28-2.77,2.28-4.69c0-2.49-1.71-4.18-5.13-5.07l-9.48-2.49c-4.69-1.24-7.03-4.01-7.03-8.29
			c0-3.07,1.08-5.54,3.23-7.42c2.15-1.88,4.99-2.83,8.5-2.83c8.81,0,13.29,3.58,13.45,10.72h-4.26c-0.13-2.39-1.04-4.2-2.73-5.41
			c-1.5-1.08-3.53-1.63-6.08-1.63c-2.2,0-4.06,0.57-5.58,1.72c-1.52,1.15-2.27,2.59-2.27,4.31c0,2.3,1.53,3.85,4.6,4.64l10.91,2.87
			c1.88,0.51,3.43,1.55,4.64,3.11C311.42,347.02,312.04,348.9,312.04,351.01z"/>
		<path class="st3" d="M359.38,329.51h-11.39v30.92h-4.5v-30.92H332v-3.97h27.38V329.51z"/>
		<path class="st3" d="M406.35,360.44h-25.04v-34.9h24.22v3.97h-19.72v11.01h18.96v3.97h-18.96v11.97h20.54V360.44z"/>
		<path class="st3" d="M458.19,360.44h-5.41c-0.38-1.02-0.67-2.11-0.86-3.25c-0.22-1.28-0.27-3.08-0.14-5.41
			c-0.13-4.21-1.93-6.32-5.41-6.32h-11.73v14.98h-4.5v-34.9h15.99c4.02,0,6.88,0.91,8.57,2.73c1.44,1.56,2.15,3.94,2.15,7.13
			c0,3.03-1.52,5.63-4.55,7.8c1.59,1.09,2.63,2.01,3.11,2.78c0.38,0.61,0.64,1.63,0.77,3.06c0.03,1.47,0.16,3.9,0.38,7.28
			c0.13,1.21,0.67,2.2,1.63,2.97V360.44z M452.35,334.83c0-1.66-0.56-2.96-1.68-3.9c-1.12-0.94-2.57-1.41-4.36-1.41h-11.68v11.97
			h11.73C450.36,341.48,452.35,339.26,452.35,334.83z"/>
	</g>
</g>
</svg>
