<svg xmlns="http://www.w3.org/2000/svg" viewBox="0 0 72 73"><defs><style>.cls-1{fill:#fff;}.cls-2{fill:#59aa24;}.cls-3{fill:#dfddde;}.cls-4{fill:#ccc;}.cls-5{fill:#546f7a;}</style></defs><g id="Background"><rect class="cls-1" x="-224.75" y="-212.25" width="500" height="500"/></g><g id="Objects"><path class="cls-2" d="M36,1.42A36.46,36.46,0,1,0,72.44,37.87,36.45,36.45,0,0,0,36,1.42ZM36,71.2A33.33,33.33,0,1,1,69.31,37.87,33.32,33.32,0,0,1,36,71.2Z"/><circle class="cls-3" cx="35.98" cy="37.87" r="29.73" transform="translate(-15.41 28.52) rotate(-36.15)"/><circle class="cls-4" cx="35.98" cy="37.87" r="30.85" transform="translate(-16.24 36.54) rotate(-45)"/><circle class="cls-3" cx="35.98" cy="37.87" r="29.73" transform="translate(-15.41 28.52) rotate(-36.15)"/><path class="cls-5" d="M28.19,46.59a2.4,2.4,0,0,0-.25,1c-.26,1.36-1.56,2.22-2.75,2.92-3.9,2.28-7.81,4.52-11.62,6.93a29.71,29.71,0,0,0,45.63-1l-9.9-5.13a25.45,25.45,0,0,0-2.36-1.12,6.09,6.09,0,0,1-1.85-.89c-.82-.69-.62-1.8-.84-2.75a1.75,1.75,0,0,0-.28-.74c-.39-.49-1.18-.46-1.61-.91a1.58,1.58,0,0,1-.34-1,1.29,1.29,0,0,1,.13-.7c.13-.25.44-.37.66-.55s.46-.35.71-.52a3,3,0,0,0,1.24-1.33,11.08,11.08,0,0,0,.69-2.82c.11-1-.11-2.16.31-3.09s1.26-1.3,1.45-2.35a5.51,5.51,0,0,0-.36-2.87,5.48,5.48,0,0,0-.67-1c-.24-.35-.08-.77,0-1.18a11,11,0,0,0-.37-3.65,9.39,9.39,0,0,0-.34-1.26,4.3,4.3,0,0,0-1.73-2.06c-.39-.24-.84-.35-1.23-.58a10.36,10.36,0,0,0-1.34-.65A20.73,20.73,0,0,0,38,18.18a9.56,9.56,0,0,0-6.42.32A3.46,3.46,0,0,0,29.41,21a3.6,3.6,0,0,0-4,1.58,6.21,6.21,0,0,0-.69,3.47,31.77,31.77,0,0,0,.6,3.18,1.24,1.24,0,0,1-.08.89c-.14.21-.4.32-.54.54a1.25,1.25,0,0,0-.12.54,6.61,6.61,0,0,0,.6,4,1.69,1.69,0,0,0,.37.43c.12.09.26.16.39.24a3.21,3.21,0,0,1,1.26,1.75c.22.65.18,1.32.35,2s.31,1.1.5,1.62a2.67,2.67,0,0,0,.76,1c.34.32.54.69,1,.82,0,.09.08.18.12.27a2.31,2.31,0,0,1,.12.78,2.62,2.62,0,0,1-.26,1.62C29.42,46.19,28.57,46,28.19,46.59Z"/></g></svg>